<svg width="128" height="128" viewBox="0 0 128 128" fill="none" xmlns="http://www.w3.org/2000/svg">
<path d="M117.33 15.38C120.473 15.38 123.02 12.8325 123.02 9.69C123.02 6.5475 120.473 4 117.33 4C114.188 4 111.64 6.5475 111.64 9.69C111.64 12.8325 114.188 15.38 117.33 15.38Z" fill="#F44336"/>
<path d="M80.09 78.3799C80.09 78.3799 89.6 91.1799 89.6 96.2299C89.6 101.28 85.5 105.38 80.45 105.38C76.14 105.38 22.25 105.27 16.3 105.27C10.35 105.27 6.97998 108.76 6.97998 108.76" stroke="#84B0C1" stroke-width="4.913" stroke-miterlimit="10" stroke-linecap="round"/>
<path d="M58.83 77.1299C58.83 77.1299 69.43 91.1799 69.43 96.2399C69.43 101.3 64.79 105.36 59.74 105.36" stroke="#84B0C1" stroke-width="4.913" stroke-miterlimit="10" stroke-linecap="round"/>
<path d="M82.77 86.73C80.76 83.29 79.13 81.29 76.51 77.71C76.51 77.71 77.2 77.86 79.06 77.86C80.92 77.86 82.26 77.27 82.26 77.27C84.9 81 85.69 81.95 87.1 84.45C87.1 84.45 87.05 86.08 85.75 86.94C84.45 87.8 82.77 86.73 82.77 86.73ZM62.56 86.9C59.77 82.64 57.54 79.39 57.54 79.39L63.54 79.53C63.54 79.53 66.23 83.14 67.77 86C67.77 86 68 87.3 66.28 87.98C64.56 88.64 62.56 86.9 62.56 86.9Z" fill="#2F7889"/>
<path d="M80.11 78.6399L10.17 73.98C9.94002 73.96 9.77002 73.78 9.77002 73.55V34.5C9.77002 34.13 10.06 33.82 10.43 33.8L99.06 28.16C99.92 28.1 100.54 28.96 100.23 29.76L81.41 77.82C81.2 78.35 80.68 78.6799 80.11 78.6399Z" stroke="#84B0C1" stroke-width="4.913" stroke-miterlimit="10"/>
<path d="M23.67 33.06L21.83 74.5M39.54 31.98L33.79 75.39M55.42 30.9L45.75 76.28M71.3 29.82L57.71 77.17M87.17 28.74L69.67 78.06M8.29004 48.48L93.85 45.54M9.08004 62.11H88.48" stroke="#84B0C1" stroke-width="2.948" stroke-miterlimit="10"/>
<path d="M80.41 124C84.5742 124 87.95 120.624 87.95 116.46C87.95 112.296 84.5742 108.92 80.41 108.92C76.2458 108.92 72.87 112.296 72.87 116.46C72.87 120.624 76.2458 124 80.41 124Z" fill="#424242"/>
<path d="M75.55 106.08H85.28L82.96 116.17C82.74 117.74 81.67 118.88 80.42 118.88C79.17 118.88 78.09 117.74 77.88 116.17L75.55 106.08Z" fill="#84B0C1"/>
<path d="M81.97 116.53C81.79 117.19 81.46 117.94 80.79 118.11C78.37 118.73 78.03 112.78 79.25 111.76C79.99 111.14 81.53 111.03 82.18 111.8C83.01 112.78 82.28 115.44 81.97 116.53Z" fill="#A8E3F0"/>
<path d="M80.53 109.65C78.92 109.65 77.78 108.7 77.22 108.11C77.182 108.071 77.1561 108.022 77.1454 107.968C77.1347 107.915 77.1397 107.859 77.1598 107.809C77.1798 107.758 77.2141 107.714 77.2585 107.682C77.3029 107.651 77.3555 107.633 77.41 107.63C78.45 107.58 79.49 107.59 80.52 107.56C81.56 107.59 82.6 107.58 83.63 107.63C83.87 107.64 83.99 107.94 83.82 108.11C83.29 108.7 82.14 109.65 80.53 109.65Z" fill="#2F7889"/>
<path d="M78.04 119.02C78.69 119.77 79.73 120.12 80.72 120C81.7 119.88 82.6 119.3 83.19 118.5C83.53 118.03 83.77 117.49 84.16 117.06C84.55 116.63 85.17 116.33 85.71 116.55C86.47 116.85 86.57 117.91 86.31 118.68C86.0578 119.449 85.6546 120.16 85.124 120.772C84.5934 121.383 83.9461 121.882 83.22 122.24C82.23 122.73 80.85 122.93 79.75 122.82C77.64 122.6 75.37 120.69 74.63 118.73C74.23 117.68 73.88 115.57 75.97 116.05C76.94 116.28 77.26 118.12 78.04 119.02Z" fill="#757575"/>
<path d="M99.8199 30.7099L104.43 19.4399C106.31 14.8399 107.7 13.8099 110.49 12.5599L117.02 9.90991" stroke="#84B0C1" stroke-width="4.913" stroke-miterlimit="10" stroke-linecap="round"/>
<path d="M19.6001 124C23.7643 124 27.1401 120.624 27.1401 116.46C27.1401 112.296 23.7643 108.92 19.6001 108.92C15.4358 108.92 12.0601 112.296 12.0601 116.46C12.0601 120.624 15.4358 124 19.6001 124Z" fill="#424242"/>
<path d="M14.73 106.08H24.46L22.14 116.17C21.92 117.74 20.85 118.88 19.6 118.88C18.35 118.88 17.27 117.74 17.06 116.17L14.73 106.08Z" fill="#84B0C1"/>
<path d="M21.16 116.53C20.98 117.19 20.65 117.94 19.98 118.11C17.56 118.73 17.22 112.78 18.44 111.76C19.18 111.14 20.72 111.03 21.37 111.8C22.2 112.78 21.46 115.44 21.16 116.53Z" fill="#A8E3F0"/>
<path d="M19.7199 109.65C18.1099 109.65 16.9699 108.7 16.4099 108.11C16.3719 108.071 16.346 108.022 16.3353 107.968C16.3246 107.915 16.3296 107.859 16.3497 107.809C16.3698 107.758 16.4041 107.714 16.4485 107.682C16.4929 107.651 16.5455 107.633 16.5999 107.63C17.6399 107.58 18.6799 107.59 19.7099 107.56C20.7499 107.59 21.7899 107.58 22.8199 107.63C23.0599 107.64 23.1799 107.94 23.0099 108.11C22.4699 108.7 21.3199 109.65 19.7199 109.65Z" fill="#2F7889"/>
<path d="M17.22 119.02C17.87 119.77 18.91 120.12 19.9 120C20.88 119.88 21.78 119.3 22.37 118.5C22.71 118.03 22.95 117.49 23.34 117.06C23.73 116.63 24.35 116.33 24.89 116.55C25.65 116.85 25.75 117.91 25.49 118.68C25.2379 119.449 24.8347 120.16 24.3041 120.772C23.7735 121.383 23.1261 121.882 22.4 122.24C21.41 122.73 20.03 122.93 18.93 122.82C16.82 122.6 14.55 120.69 13.81 118.73C13.41 117.68 13.06 115.57 15.15 116.05C16.12 116.28 16.44 118.12 17.22 119.02Z" fill="#757575"/>
</svg>
