<svg width="896" height="896" viewBox="0 0 896 896" fill="none" xmlns="http://www.w3.org/2000/svg">
<path d="M448 0C566.817 0 680.768 47.1999 764.784 131.216C848.8 215.232 896 329.183 896 448C896 566.817 848.8 680.768 764.784 764.784C680.768 848.8 566.817 896 448 896C329.183 896 215.232 848.8 131.216 764.784C47.1999 680.768 0 566.817 0 448C0 329.183 47.1999 215.232 131.216 131.216C215.232 47.1999 329.183 0 448 0ZM392.192 536.384L292.672 436.8C289.104 433.232 284.869 430.402 280.207 428.471C275.546 426.54 270.55 425.547 265.504 425.547C260.458 425.547 255.462 426.54 250.801 428.471C246.139 430.402 241.904 433.232 238.336 436.8C231.131 444.005 227.083 453.778 227.083 463.968C227.083 474.158 231.131 483.931 238.336 491.136L365.056 617.856C368.614 621.442 372.846 624.288 377.509 626.23C382.172 628.172 387.173 629.172 392.224 629.172C397.275 629.172 402.276 628.172 406.939 626.23C411.602 624.288 415.834 621.442 419.392 617.856L681.792 355.392C685.407 351.839 688.284 347.605 690.255 342.935C692.226 338.265 693.253 333.251 693.276 328.182C693.3 323.113 692.32 318.09 690.392 313.402C688.464 308.713 685.628 304.453 682.046 300.867C678.463 297.28 674.207 294.439 669.521 292.505C664.835 290.572 659.812 289.586 654.743 289.604C649.674 289.621 644.659 290.642 639.987 292.608C635.314 294.574 631.077 297.445 627.52 301.056L392.192 536.384Z" fill="black"/>
</svg>
