<svg width="1012" height="1012" viewBox="0 0 1012 1012" fill="none" xmlns="http://www.w3.org/2000/svg">
<path d="M823.99 1012H931.594L789.835 541.973H682.23L823.99 1012Z" fill="#FCC21B"/>
<path d="M674.245 1012H564.981L692.429 541.973H801.773L674.245 1012ZM341.787 1012H449.312L307.553 541.973H200.028L341.787 1012Z" fill="#FCC21B"/>
<path d="M192.043 1012H82.6993L210.148 541.973H319.492L192.043 1012Z" fill="#FCC21B"/>
<path d="M984.644 577.868H27.2766C20.4335 577.847 13.8779 575.114 9.04652 570.268C4.21515 565.421 1.50217 558.857 1.5022 552.014V205.8C1.5022 191.568 13.0453 179.946 27.2766 179.946H984.644C998.955 179.946 1010.5 191.489 1010.5 205.8V552.014C1010.5 566.246 998.955 577.868 984.644 577.868" fill="#FCC21B"/>
<mask id="mask0_48_31" style="mask-type:luminance" maskUnits="userSpaceOnUse" x="1" y="179" width="1010" height="399">
<path d="M984.644 577.868H27.2766C20.4335 577.847 13.8779 575.114 9.04652 570.268C4.21515 565.421 1.50217 558.857 1.5022 552.014V205.8C1.5022 191.568 13.0453 179.946 27.2766 179.946H984.644C998.955 179.946 1010.5 191.489 1010.5 205.8V552.014C1010.5 566.246 998.955 577.868 984.644 577.868" fill="white"/>
</mask>
<g mask="url(#mask0_48_31)">
<path d="M-47.6746 677.328L-131.323 614.395L312.455 -6.79932L396.103 56.1344L-47.6746 677.328ZM216.789 677.328L133.141 614.395L576.919 -6.79932L660.646 56.1344L216.789 677.328ZM481.253 677.328L397.605 614.395L841.383 -6.79932L925.031 56.1344L481.253 677.328ZM745.638 677.328L662.069 614.395L1105.93 -6.79932L1189.57 56.1344L745.638 677.328Z" fill="#2F2F2F"/>
</g>
<path d="M250.233 107.999C250.233 150.93 215.445 185.718 172.514 185.718C129.662 185.718 94.875 150.93 94.875 107.999C94.875 65.0684 129.662 30.36 172.514 30.36C215.445 30.36 250.233 65.1475 250.233 107.999Z" fill="#2F2F2F"/>
<path d="M172.514 204.06C119.622 204.06 76.6116 160.971 76.6116 107.999C76.6116 55.1066 119.622 12.0175 172.514 12.0175C225.486 12.0175 268.575 55.0275 268.575 107.999C268.575 160.971 225.486 204.06 172.514 204.06ZM172.514 48.7025C139.862 48.7025 113.218 75.3466 113.218 108.078C113.218 140.81 139.783 167.454 172.514 167.454C205.325 167.454 231.89 140.81 231.89 108.078C231.89 75.3466 205.246 48.7025 172.514 48.7025Z" fill="#2F2F2F"/>
<path d="M146.977 30.36H172.435V185.718H146.977V30.36Z" fill="#2F2F2F"/>
<path d="M172.514 204.377H147.056C136.778 204.377 128.397 196.075 128.397 185.797V30.36C128.397 20.0819 136.778 11.7803 147.056 11.7803H172.514C182.872 11.7803 191.173 20.161 191.173 30.36V185.718C191.173 196.075 182.792 204.377 172.514 204.377Z" fill="#2F2F2F"/>
<path d="M225.961 107.999C225.961 150.93 191.094 185.718 148.242 185.718C105.311 185.718 70.5238 150.93 70.5238 107.999C70.5238 65.0684 105.232 30.36 148.242 30.36C191.173 30.36 225.961 65.1475 225.961 107.999Z" fill="#ED6C30"/>
<path d="M148.321 204.06C95.3494 204.06 52.3394 160.971 52.3394 107.999C52.3394 55.1066 95.4284 12.0175 148.321 12.0175C201.293 12.0175 244.382 55.0275 244.382 107.999C244.303 160.971 201.214 204.06 148.321 204.06ZM148.321 48.7025C115.589 48.7025 88.9453 75.3466 88.9453 108.078C88.9453 140.81 115.589 167.454 148.321 167.454C180.974 167.454 207.697 140.81 207.697 108.078C207.697 75.3466 180.974 48.7025 148.321 48.7025Z" fill="#2F2F2F"/>
<path d="M876.013 185.797C918.935 185.797 953.731 151.001 953.731 108.078C953.731 65.1557 918.935 30.36 876.013 30.36C833.09 30.36 798.294 65.1557 798.294 108.078C798.294 151.001 833.09 185.797 876.013 185.797Z" fill="#2F2F2F"/>
<path d="M875.934 204.06C822.962 204.06 779.952 160.971 779.952 107.999C779.952 55.1066 822.962 12.0175 875.934 12.0175C928.905 12.0175 971.915 55.0275 971.915 107.999C971.994 160.971 928.905 204.06 875.934 204.06ZM875.934 48.7025C843.202 48.7025 816.558 75.3466 816.558 108.078C816.558 140.81 843.202 167.454 875.934 167.454C908.665 167.454 935.309 140.81 935.309 108.078C935.309 75.3466 908.665 48.7025 875.934 48.7025Z" fill="#2F2F2F"/>
<path d="M850.475 30.36H876.012V185.718H850.475V30.36Z" fill="#2F2F2F"/>
<path d="M875.933 204.377H850.396C840.118 204.377 831.816 196.075 831.816 185.797V30.36C831.816 20.0819 840.118 11.7803 850.396 11.7803H875.933C886.211 11.7803 894.513 20.161 894.513 30.36V185.718C894.537 188.168 894.074 190.599 893.149 192.868C892.225 195.138 890.859 197.201 889.13 198.937C887.401 200.674 885.344 202.049 883.078 202.983C880.812 203.917 878.384 204.39 875.933 204.377Z" fill="#2F2F2F"/>
<path d="M851.74 185.797C894.663 185.797 929.459 151.001 929.459 108.078C929.459 65.1557 894.663 30.36 851.74 30.36C808.818 30.36 774.022 65.1557 774.022 108.078C774.022 151.001 808.818 185.797 851.74 185.797Z" fill="#ED6C30"/>
<path d="M851.74 204.06C798.768 204.06 755.758 160.971 755.758 107.999C755.758 55.1066 798.847 12.0175 851.74 12.0175C904.712 12.0175 947.801 55.0275 947.801 107.999C947.722 160.971 904.712 204.06 851.74 204.06ZM851.74 48.7025C819.008 48.7025 792.364 75.3466 792.364 108.078C792.364 140.81 819.008 167.454 851.74 167.454C884.472 167.454 911.116 140.81 911.116 108.078C911.037 75.3466 884.472 48.7025 851.74 48.7025Z" fill="#2F2F2F"/>
</svg>
